<?xml version="1.0" encoding="utf-8"?>
<!-- Generator: Adobe Illustrator 22.1.0, SVG Export Plug-In . SVG Version: 6.00 Build 0)  -->
<svg version="1.1" xmlns="http://www.w3.org/2000/svg" xmlns:xlink="http://www.w3.org/1999/xlink" x="0px" y="0px"
	 viewBox="0 0 1400 1200" style="enable-background:new 0 0 1400 1200;" xml:space="preserve">
<style type="text/css">
	.st0{fill:url(#SVGID_1_);}
	.st1{opacity:0.57;fill:url(#SVGID_2_);}
	.st2{fill:#174551;}
	.st3{fill:#297182;}
	.st4{fill:url(#SVGID_3_);}
	.st5{fill:#0B3038;}
	.st6{fill:url(#SVGID_4_);}
	.st7{fill:#FFFFFF;}
	.st8{fill:url(#SVGID_5_);}
	.st9{fill:url(#SVGID_6_);}
	.st10{fill:url(#SVGID_7_);}
	.st11{fill:url(#SVGID_8_);}
	.st12{fill:url(#SVGID_9_);}
	.st13{fill:url(#SVGID_10_);}
	.st14{fill:url(#SVGID_11_);}
	.st15{fill:#F8FEFF;}
	.st16{fill:url(#SVGID_12_);}
	.st17{fill:url(#SVGID_13_);}
	.st18{opacity:0.5;}
	.st19{fill:url(#SVGID_14_);}
	.st20{fill:url(#SVGID_15_);}
	.st21{fill:url(#SVGID_16_);}
	.st22{fill:url(#SVGID_17_);}
	.st23{fill:url(#SVGID_18_);}
	.st24{fill:url(#SVGID_19_);}
	.st25{fill:url(#SVGID_20_);}
	.st26{fill:url(#SVGID_21_);}
	.st27{fill:url(#SVGID_22_);}
	.st28{fill:url(#SVGID_23_);}
	.st29{fill:url(#SVGID_24_);}
	.st30{fill:url(#SVGID_25_);}
	.st31{fill:none;}
	.st32{fill:#FCFCFC;}
	.st33{fill:url(#SVGID_26_);}
	.st34{fill:#40B2CC;}
	.st35{fill:#F92121;}
	.st36{fill:#F4D600;}
	.st37{fill:#0C4251;}
	.st38{fill:#20C6ED;}
</style>
<g id="BACKGROUND">
	<linearGradient id="SVGID_1_" gradientUnits="userSpaceOnUse" x1="700" y1="368.796" x2="700" y2="-177.2679">
		<stop  offset="0" style="stop-color:#43DCFF"/>
		<stop  offset="1" style="stop-color:#09ACD8"/>
	</linearGradient>
	<rect x="0" class="st0" width="1400" height="1200"/>
</g>
<g id="OBJECT">
	<g>
		<linearGradient id="SVGID_2_" gradientUnits="userSpaceOnUse" x1="700.0001" y1="589.3649" x2="700.0001" y2="162.0715">
			<stop  offset="0" style="stop-color:#43DCFF"/>
			<stop  offset="1" style="stop-color:#FFFFFF"/>
		</linearGradient>
		<path class="st1" d="M1400,244.1c-11.2-10.2-26.2-16.5-42.6-16.5c-27.9,0-51.5,18-59.9,43.1c-9.8-7.3-21.9-11.6-35.1-11.6
			c-10.4,0-20.1,2.7-28.5,7.4c-10.7-19.6-31.6-32.9-55.5-32.9c-33.5,0-60.9,26.1-63.1,59c-0.3,0-0.6,0-0.9,0
			c-13.2,0-25.4,4-35.5,10.9c-10.4-27.4-36.9-46.9-67.9-46.9c-20,0-38.2,8.1-51.3,21.2c-10.4-22.6-33.2-38.2-59.7-38.2
			c-13.9,0-26.7,4.3-37.3,11.6c-12.5-27.8-40.4-47.2-72.9-47.3c-14.5-35.2-49.2-60-89.7-60s-75.2,24.8-89.7,60
			c-32.5,0-60.4,19.4-72.9,47.3c-10.6-7.3-23.5-11.6-37.3-11.6c-26.5,0-49.3,15.7-59.7,38.2c-13.1-13.1-31.3-21.2-51.3-21.2
			c-31,0-57.5,19.5-67.9,46.9c-10.1-6.9-22.4-10.9-35.5-10.9c-0.3,0-0.6,0-0.9,0c-2.2-33-29.6-59-63.1-59
			c-23.9,0-44.7,13.3-55.5,32.9c-8.4-4.7-18.2-7.4-28.5-7.4c-13.1,0-25.3,4.3-35.1,11.6c-8.4-25-32.1-43.1-59.9-43.1
			c-16.4,0-31.3,6.2-42.6,16.5V1200h1400V244.1z"/>
		<rect x="26.7" y="409.5" class="st2" width="22.7" height="132.7"/>
		<rect x="291.4" y="409.5" class="st2" width="22.7" height="132.7"/>
		<rect x="556.2" y="409.5" class="st2" width="22.7" height="132.7"/>
		<rect x="821" y="409.5" class="st2" width="22.7" height="132.7"/>
		<rect x="1085.8" y="409.5" class="st2" width="22.7" height="132.7"/>
		<rect x="42" y="409.5" class="st3" width="7.3" height="132.7"/>
		<rect x="306.8" y="409.5" class="st3" width="7.3" height="132.7"/>
		<rect x="571.6" y="409.5" class="st3" width="7.3" height="132.7"/>
		<rect x="836.4" y="409.5" class="st3" width="7.3" height="132.7"/>
		<rect x="1101.2" y="409.5" class="st3" width="7.3" height="132.7"/>
		<rect x="1350.6" y="409.5" class="st2" width="22.7" height="132.7"/>
		<rect x="1367.2" y="409.5" class="st3" width="6.2" height="132.7"/>
		<g>
			<radialGradient id="SVGID_3_" cx="177.79" cy="412.6616" r="109.5751" gradientUnits="userSpaceOnUse">
				<stop  offset="0" style="stop-color:#0B3038"/>
				<stop  offset="1" style="stop-color:#174551"/>
			</radialGradient>
			<polygon class="st4" points="186,563.1 169.6,567.4 169.6,257.9 186,260.9 			"/>
			<polygon class="st5" points="169.6,258.9 164.1,257.9 164.1,567.4 169.6,566 			"/>
			<g>
				<path class="st5" d="M223.4,276.2l-109.4-18c-6.8-1.1-13.4-8-14.6-15.6l-10.1-62.2c-1.7-10.2,3.9-16.8,12.3-14.4l130.6,36.9
					c5.7,1.6,9.3,9.2,8.2,16.7l-6.7,47.4C232.9,272.9,228.3,277,223.4,276.2z"/>
				<radialGradient id="SVGID_4_" cx="183.8221" cy="200.6433" r="83.8615" gradientUnits="userSpaceOnUse">
					<stop  offset="0" style="stop-color:#0B3038"/>
					<stop  offset="1" style="stop-color:#174551"/>
				</radialGradient>
				<path class="st6" d="M230.7,278.2l-109.4-18c-6.8-1.1-13.4-8-14.6-15.6l-10.1-62.2c-1.7-10.2,3.9-16.8,12.3-14.4l130.6,36.9
					c5.7,1.6,9.3,9.2,8.2,16.7l-6.7,47.4C240.2,275,235.6,279,230.7,278.2z"/>
				<g>
					<g>
						<path class="st5" d="M129,210c-5.9-1.4-10.8-7.6-10.8-13.8s4.9-10,10.8-8.4c5.8,1.6,10.5,7.7,10.5,13.8
							C139.5,207.6,134.8,211.4,129,210z"/>
						<path class="st5" d="M161.1,217.6c-5.4-1.3-9.8-7.1-9.8-13.1s4.5-9.6,9.8-8.1c5.3,1.4,9.6,7.2,9.6,13S166.4,218.8,161.1,217.6
							z"/>
						<path class="st5" d="M190.3,224.4c-4.9-1.2-9-6.7-9-12.4c0-5.7,4.1-9.2,9-7.9c4.8,1.3,8.7,6.8,8.7,12.3
							C199,222,195.1,225.6,190.3,224.4z"/>
						<path class="st5" d="M216.4,230.6c-4.5-1.1-8.2-6.3-8.2-11.8c0-5.4,3.7-8.8,8.2-7.6c4.4,1.2,8,6.4,8,11.7
							C224.4,228.2,220.9,231.6,216.4,230.6z"/>
					</g>
					<g>
						<path class="st5" d="M129,247.4c-5.9-1.1-10.8-7-10.8-13.3s4.9-10.3,10.8-9c5.8,1.2,10.5,7.1,10.5,13.2S134.8,248.5,129,247.4
							z"/>
						<path class="st5" d="M161.1,253.2c-5.4-1-9.8-6.6-9.8-12.5s4.5-9.8,9.8-8.7c5.3,1.1,9.6,6.7,9.6,12.5S166.4,254.1,161.1,253.2
							z"/>
						<path class="st5" d="M190.3,258.4c-4.9-0.9-9-6.2-9-11.9c0-5.7,4.1-9.4,9-8.4c4.8,1,8.7,6.3,8.7,11.8S195.1,259.3,190.3,258.4
							z"/>
						<path class="st5" d="M216.4,263.2c-4.5-0.8-8.2-5.9-8.2-11.3s3.7-9,8.2-8.1c4.4,0.9,8,6,8,11.3S220.9,264,216.4,263.2z"/>
					</g>
				</g>
				<g>
					<g>
						<path class="st7" d="M133.2,210.7c-5.9-1.4-10.8-7.6-10.8-13.8s4.9-10,10.8-8.4c5.8,1.6,10.5,7.7,10.5,13.8
							C143.7,208.3,139,212.1,133.2,210.7z"/>
						<path class="st7" d="M165.3,218.3c-5.4-1.3-9.8-7.1-9.8-13.1s4.5-9.6,9.8-8.1c5.3,1.4,9.6,7.2,9.6,13
							C174.8,215.8,170.6,219.5,165.3,218.3z"/>
						<path class="st7" d="M194.5,225.1c-4.9-1.2-9-6.7-9-12.4c0-5.7,4.1-9.2,9-7.9c4.8,1.3,8.7,6.8,8.7,12.3
							C203.2,222.7,199.3,226.3,194.5,225.1z"/>
						<path class="st7" d="M220.6,231.3c-4.5-1.1-8.2-6.3-8.2-11.8c0-5.4,3.7-8.8,8.2-7.6c4.4,1.2,8,6.4,8,11.7
							S225.1,232.3,220.6,231.3z"/>
					</g>
					<g>
						<path class="st7" d="M133.2,248.1c-5.9-1.1-10.8-7-10.8-13.3s4.9-10.3,10.8-9c5.8,1.2,10.5,7.1,10.5,13.2
							C143.7,245.1,139,249.2,133.2,248.1z"/>
						<path class="st7" d="M165.3,253.9c-5.4-1-9.8-6.6-9.8-12.5s4.5-9.8,9.8-8.7c5.3,1.1,9.6,6.7,9.6,12.5
							C174.8,250.9,170.6,254.8,165.3,253.9z"/>
						<path class="st7" d="M194.5,259.1c-4.9-0.9-9-6.2-9-11.9c0-5.7,4.1-9.4,9-8.4c4.8,1,8.7,6.3,8.7,11.8
							C203.2,256.2,199.3,260,194.5,259.1z"/>
						<path class="st7" d="M220.6,263.8c-4.5-0.8-8.2-5.9-8.2-11.3c0-5.4,3.7-9,8.2-8.1c4.4,0.9,8,6,8,11.3
							C228.6,261,225.1,264.6,220.6,263.8z"/>
					</g>
				</g>
			</g>
		</g>
		<g>
			<radialGradient id="SVGID_5_" cx="436.6274" cy="443.3359" r="109.5751" gradientUnits="userSpaceOnUse">
				<stop  offset="0" style="stop-color:#0B3038"/>
				<stop  offset="1" style="stop-color:#174551"/>
			</radialGradient>
			<polygon class="st8" points="444.8,593.8 428.5,598.1 428.5,288.6 444.8,291.5 			"/>
			<polygon class="st5" points="428.5,289.6 422.9,288.6 422.9,598.1 428.5,596.6 			"/>
			<g>
				<path class="st5" d="M482.3,306.8l-109.4-18c-6.8-1.1-13.4-8-14.6-15.6L348.1,211c-1.7-10.2,3.9-16.8,12.3-14.4l130.6,36.9
					c5.7,1.6,9.3,9.2,8.2,16.7l-6.7,47.4C491.7,303.6,487.2,307.6,482.3,306.8z"/>
				<radialGradient id="SVGID_6_" cx="442.6595" cy="231.3176" r="83.8615" gradientUnits="userSpaceOnUse">
					<stop  offset="0" style="stop-color:#0B3038"/>
					<stop  offset="1" style="stop-color:#174551"/>
				</radialGradient>
				<path class="st9" d="M489.6,308.9l-109.4-18c-6.8-1.1-13.4-8-14.6-15.6L355.4,213c-1.7-10.2,3.9-16.8,12.3-14.4l130.6,36.9
					c5.7,1.6,9.3,9.2,8.2,16.7l-6.7,47.4C499,305.6,494.5,309.7,489.6,308.9z"/>
				<g>
					<g>
						<path class="st5" d="M387.8,240.7c-5.9-1.4-10.8-7.6-10.8-13.8s4.9-10,10.8-8.4c5.8,1.6,10.5,7.7,10.5,13.8
							C398.3,238.3,393.7,242.1,387.8,240.7z"/>
						<path class="st5" d="M419.9,248.3c-5.4-1.3-9.8-7.1-9.8-13.1s4.5-9.6,9.8-8.1c5.3,1.4,9.6,7.2,9.6,13
							C429.5,245.8,425.2,249.5,419.9,248.3z"/>
						<path class="st5" d="M449.1,255.1c-4.9-1.2-9-6.7-9-12.4c0-5.7,4.1-9.2,9-7.9c4.8,1.3,8.7,6.8,8.7,12.3
							S453.9,256.3,449.1,255.1z"/>
						<path class="st5" d="M475.3,261.3c-4.5-1.1-8.2-6.3-8.2-11.8c0-5.4,3.7-8.8,8.2-7.6c4.4,1.2,8,6.4,8,11.7
							C483.3,258.8,479.7,262.3,475.3,261.3z"/>
					</g>
					<g>
						<path class="st5" d="M387.8,278.1c-5.9-1.1-10.8-7-10.8-13.3c0-6.2,4.9-10.3,10.8-9c5.8,1.2,10.5,7.1,10.5,13.2
							S393.7,279.1,387.8,278.1z"/>
						<path class="st5" d="M419.9,283.9c-5.4-1-9.8-6.6-9.8-12.5c0-5.9,4.5-9.8,9.8-8.7c5.3,1.1,9.6,6.7,9.6,12.5
							S425.2,284.8,419.9,283.9z"/>
						<path class="st5" d="M449.1,289.1c-4.9-0.9-9-6.2-9-11.9s4.1-9.4,9-8.4c4.8,1,8.7,6.3,8.7,11.8
							C457.8,286.2,453.9,290,449.1,289.1z"/>
						<path class="st5" d="M475.3,293.8c-4.5-0.8-8.2-5.9-8.2-11.3c0-5.4,3.7-9,8.2-8.1c4.4,0.9,8,6,8,11.3
							C483.3,291,479.7,294.6,475.3,293.8z"/>
					</g>
				</g>
				<g>
					<g>
						<path class="st7" d="M392,241.4c-5.9-1.4-10.8-7.6-10.8-13.8s4.9-10,10.8-8.4c5.8,1.6,10.5,7.7,10.5,13.8
							S397.8,242.8,392,241.4z"/>
						<path class="st7" d="M424.1,248.9c-5.4-1.3-9.8-7.1-9.8-13.1s4.5-9.6,9.8-8.1c5.3,1.4,9.6,7.2,9.6,13S429.4,250.2,424.1,248.9
							z"/>
						<path class="st7" d="M453.3,255.8c-4.9-1.2-9-6.7-9-12.4s4.1-9.2,9-7.9c4.8,1.3,8.7,6.8,8.7,12.3
							C462,253.4,458.1,256.9,453.3,255.8z"/>
						<path class="st7" d="M479.5,261.9c-4.5-1.1-8.2-6.3-8.2-11.8c0-5.4,3.7-8.8,8.2-7.6c4.4,1.2,8,6.4,8,11.7
							C487.5,259.5,483.9,263,479.5,261.9z"/>
					</g>
					<g>
						<path class="st7" d="M392,278.8c-5.9-1.1-10.8-7-10.8-13.3c0-6.2,4.9-10.3,10.8-9c5.8,1.2,10.5,7.1,10.5,13.2
							C402.5,275.8,397.8,279.8,392,278.8z"/>
						<path class="st7" d="M424.1,284.6c-5.4-1-9.8-6.6-9.8-12.5s4.5-9.8,9.8-8.7c5.3,1.1,9.6,6.7,9.6,12.5
							C433.7,281.6,429.4,285.5,424.1,284.6z"/>
						<path class="st7" d="M453.3,289.8c-4.9-0.9-9-6.2-9-11.9c0-5.7,4.1-9.4,9-8.4c4.8,1,8.7,6.3,8.7,11.8S458.1,290.7,453.3,289.8
							z"/>
						<path class="st7" d="M479.5,294.5c-4.5-0.8-8.2-5.9-8.2-11.3c0-5.4,3.7-9,8.2-8.1c4.4,0.9,8,6,8,11.3S483.9,295.3,479.5,294.5
							z"/>
					</g>
				</g>
			</g>
		</g>
		<g>
			
				<radialGradient id="SVGID_7_" cx="652.9356" cy="404.769" r="109.5751" gradientTransform="matrix(-1 0 0 1 1897.7092 0)" gradientUnits="userSpaceOnUse">
				<stop  offset="0" style="stop-color:#0B3038"/>
				<stop  offset="1" style="stop-color:#174551"/>
			</radialGradient>
			<polygon class="st10" points="1236.6,555.3 1252.9,559.5 1252.9,250 1236.6,253 			"/>
			<polygon class="st5" points="1252.9,251 1258.5,250 1258.5,559.5 1252.9,558.1 			"/>
			<g>
				<path class="st5" d="M1199.1,268.3l109.4-18c6.8-1.1,13.4-8,14.6-15.6l10.1-62.2c1.7-10.2-3.9-16.8-12.3-14.4l-130.6,36.9
					c-5.7,1.6-9.3,9.2-8.2,16.7l6.7,47.4C1189.7,265,1194.2,269.1,1199.1,268.3z"/>
				
					<radialGradient id="SVGID_8_" cx="658.9677" cy="192.7506" r="83.8615" gradientTransform="matrix(-1 0 0 1 1897.7092 0)" gradientUnits="userSpaceOnUse">
					<stop  offset="0" style="stop-color:#0B3038"/>
					<stop  offset="1" style="stop-color:#174551"/>
				</radialGradient>
				<path class="st11" d="M1191.8,270.3l109.4-18c6.8-1.1,13.4-8,14.6-15.6l10.1-62.2c1.7-10.2-3.9-16.8-12.3-14.4L1183,197
					c-5.7,1.6-9.3,9.2-8.2,16.7l6.7,47.4C1182.4,267.1,1186.9,271.1,1191.8,270.3z"/>
				<g>
					<g>
						<path class="st5" d="M1293.6,202.1c5.9-1.4,10.8-7.6,10.8-13.8s-4.9-10-10.8-8.4c-5.8,1.6-10.5,7.7-10.5,13.8
							S1287.7,203.5,1293.6,202.1z"/>
						<path class="st5" d="M1261.5,209.7c5.4-1.3,9.8-7.1,9.8-13.1s-4.5-9.6-9.8-8.1c-5.3,1.4-9.6,7.2-9.6,13
							S1256.2,210.9,1261.5,209.7z"/>
						<path class="st5" d="M1232.3,216.5c4.9-1.2,9-6.7,9-12.4c0-5.7-4.1-9.2-9-7.9c-4.8,1.3-8.7,6.8-8.7,12.3
							C1223.6,214.1,1227.5,217.7,1232.3,216.5z"/>
						<path class="st5" d="M1206.1,222.7c4.5-1.1,8.2-6.3,8.2-11.8c0-5.4-3.7-8.8-8.2-7.6c-4.4,1.2-8,6.4-8,11.7
							S1201.7,223.7,1206.1,222.7z"/>
					</g>
					<g>
						<path class="st5" d="M1293.6,239.5c5.9-1.1,10.8-7,10.8-13.3s-4.9-10.3-10.8-9c-5.8,1.2-10.5,7.1-10.5,13.2
							C1283.1,236.5,1287.7,240.6,1293.6,239.5z"/>
						<path class="st5" d="M1261.5,245.3c5.4-1,9.8-6.6,9.8-12.5s-4.5-9.8-9.8-8.7c-5.3,1.1-9.6,6.7-9.6,12.5
							C1251.9,242.3,1256.2,246.3,1261.5,245.3z"/>
						<path class="st5" d="M1232.3,250.6c4.9-0.9,9-6.2,9-11.9c0-5.7-4.1-9.4-9-8.4c-4.8,1-8.7,6.3-8.7,11.8
							C1223.6,247.6,1227.5,251.4,1232.3,250.6z"/>
						<path class="st5" d="M1206.1,255.3c4.5-0.8,8.2-5.9,8.2-11.3c0-5.4-3.7-9-8.2-8.1c-4.4,0.9-8,6-8,11.3
							C1198.1,252.4,1201.7,256.1,1206.1,255.3z"/>
					</g>
				</g>
				<g>
					<g>
						<path class="st7" d="M1289.4,202.8c5.9-1.4,10.8-7.6,10.8-13.8s-4.9-10-10.8-8.4c-5.8,1.6-10.5,7.7-10.5,13.8
							C1278.9,200.4,1283.6,204.2,1289.4,202.8z"/>
						<path class="st7" d="M1257.3,210.4c5.4-1.3,9.8-7.1,9.8-13.1s-4.5-9.6-9.8-8.1c-5.3,1.4-9.6,7.2-9.6,13
							C1247.7,207.9,1252,211.6,1257.3,210.4z"/>
						<path class="st7" d="M1228.1,217.2c4.9-1.2,9-6.7,9-12.4c0-5.7-4.1-9.2-9-7.9c-4.8,1.3-8.7,6.8-8.7,12.3
							S1223.3,218.4,1228.1,217.2z"/>
						<path class="st7" d="M1201.9,223.4c4.5-1.1,8.2-6.3,8.2-11.8c0-5.4-3.7-8.8-8.2-7.6c-4.4,1.2-8,6.4-8,11.7
							S1197.5,224.4,1201.9,223.4z"/>
					</g>
					<g>
						<path class="st7" d="M1289.4,240.2c5.9-1.1,10.8-7,10.8-13.3s-4.9-10.3-10.8-9c-5.8,1.2-10.5,7.1-10.5,13.2
							C1278.9,237.2,1283.6,241.3,1289.4,240.2z"/>
						<path class="st7" d="M1257.3,246c5.4-1,9.8-6.6,9.8-12.5s-4.5-9.8-9.8-8.7c-5.3,1.1-9.6,6.7-9.6,12.5
							C1247.7,243,1252,246.9,1257.3,246z"/>
						<path class="st7" d="M1228.1,251.2c4.9-0.9,9-6.2,9-11.9c0-5.7-4.1-9.4-9-8.4c-4.8,1-8.7,6.3-8.7,11.8
							C1219.4,248.3,1223.3,252.1,1228.1,251.2z"/>
						<path class="st7" d="M1201.9,255.9c4.5-0.8,8.2-5.9,8.2-11.3c0-5.4-3.7-9-8.2-8.1c-4.4,0.9-8,6-8,11.3
							S1197.5,256.7,1201.9,255.9z"/>
					</g>
				</g>
			</g>
		</g>
		<g>
			
				<radialGradient id="SVGID_9_" cx="911.773" cy="435.4432" r="109.5751" gradientTransform="matrix(-1 0 0 1 1897.7092 0)" gradientUnits="userSpaceOnUse">
				<stop  offset="0" style="stop-color:#0B3038"/>
				<stop  offset="1" style="stop-color:#174551"/>
			</radialGradient>
			<polygon class="st12" points="977.8,585.9 994.1,590.2 994.1,280.7 977.8,283.6 			"/>
			<polygon class="st5" points="994.1,281.7 999.7,280.7 999.7,590.2 994.1,588.7 			"/>
			<g>
				<path class="st5" d="M940.3,298.9l109.4-18c6.8-1.1,13.4-8,14.6-15.6l10.1-62.2c1.7-10.2-3.9-16.8-12.3-14.4l-130.6,36.9
					c-5.7,1.6-9.3,9.2-8.2,16.7l6.7,47.4C930.8,295.7,935.4,299.8,940.3,298.9z"/>
				
					<radialGradient id="SVGID_10_" cx="917.8051" cy="223.4249" r="83.8615" gradientTransform="matrix(-1 0 0 1 1897.7092 0)" gradientUnits="userSpaceOnUse">
					<stop  offset="0" style="stop-color:#0B3038"/>
					<stop  offset="1" style="stop-color:#174551"/>
				</radialGradient>
				<path class="st13" d="M933,301l109.4-18c6.8-1.1,13.4-8,14.6-15.6l10.1-62.2c1.7-10.2-3.9-16.8-12.3-14.4l-130.6,36.9
					c-5.7,1.6-9.3,9.2-8.2,16.7l6.7,47.4C923.5,297.7,928.1,301.8,933,301z"/>
				<g>
					<g>
						<path class="st5" d="M1034.7,232.8c5.9-1.4,10.8-7.6,10.8-13.8s-4.9-10-10.8-8.4c-5.8,1.6-10.5,7.7-10.5,13.8
							C1024.2,230.4,1028.9,234.2,1034.7,232.8z"/>
						<path class="st5" d="M1002.7,240.4c5.4-1.3,9.8-7.1,9.8-13.1s-4.5-9.6-9.8-8.1c-5.3,1.4-9.6,7.2-9.6,13
							S997.4,241.6,1002.7,240.4z"/>
						<path class="st5" d="M973.5,247.2c4.9-1.2,9-6.7,9-12.4s-4.1-9.2-9-7.9c-4.8,1.3-8.7,6.8-8.7,12.3
							C964.7,244.8,968.6,248.4,973.5,247.2z"/>
						<path class="st5" d="M947.3,253.4c4.5-1.1,8.2-6.3,8.2-11.8c0-5.4-3.7-8.8-8.2-7.6c-4.4,1.2-8,6.4-8,11.7
							S942.9,254.4,947.3,253.4z"/>
					</g>
					<g>
						<path class="st5" d="M1034.7,270.2c5.9-1.1,10.8-7,10.8-13.3c0-6.2-4.9-10.3-10.8-9c-5.8,1.2-10.5,7.1-10.5,13.2
							S1028.9,271.3,1034.7,270.2z"/>
						<path class="st5" d="M1002.7,276c5.4-1,9.8-6.6,9.8-12.5c0-5.9-4.5-9.8-9.8-8.7c-5.3,1.1-9.6,6.7-9.6,12.5
							S997.4,276.9,1002.7,276z"/>
						<path class="st5" d="M973.5,281.2c4.9-0.9,9-6.2,9-11.9s-4.1-9.4-9-8.4c-4.8,1-8.7,6.3-8.7,11.8
							C964.7,278.3,968.6,282.1,973.5,281.2z"/>
						<path class="st5" d="M947.3,285.9c4.5-0.8,8.2-5.9,8.2-11.3s-3.7-9-8.2-8.1c-4.4,0.9-8,6-8,11.3S942.9,286.7,947.3,285.9z"/>
					</g>
				</g>
				<g>
					<g>
						<path class="st7" d="M1030.6,233.5c5.9-1.4,10.8-7.6,10.8-13.8s-4.9-10-10.8-8.4c-5.8,1.6-10.5,7.7-10.5,13.8
							C1020,231.1,1024.7,234.9,1030.6,233.5z"/>
						<path class="st7" d="M998.5,241c5.4-1.3,9.8-7.1,9.8-13.1s-4.5-9.6-9.8-8.1c-5.3,1.4-9.6,7.2-9.6,13
							C988.9,238.6,993.2,242.3,998.5,241z"/>
						<path class="st7" d="M969.3,247.9c4.9-1.2,9-6.7,9-12.4c0-5.7-4.1-9.2-9-7.9c-4.8,1.3-8.7,6.8-8.7,12.3
							C960.5,245.5,964.4,249,969.3,247.9z"/>
						<path class="st7" d="M943.1,254c4.5-1.1,8.2-6.3,8.2-11.8c0-5.4-3.7-8.8-8.2-7.6c-4.4,1.2-8,6.4-8,11.7S938.7,255.1,943.1,254
							z"/>
					</g>
					<g>
						<path class="st7" d="M1030.6,270.9c5.9-1.1,10.8-7,10.8-13.3c0-6.2-4.9-10.3-10.8-9c-5.8,1.2-10.5,7.1-10.5,13.2
							S1024.7,271.9,1030.6,270.9z"/>
						<path class="st7" d="M998.5,276.7c5.4-1,9.8-6.6,9.8-12.5c0-5.9-4.5-9.8-9.8-8.7c-5.3,1.1-9.6,6.7-9.6,12.5
							S993.2,277.6,998.5,276.7z"/>
						<path class="st7" d="M969.3,281.9c4.9-0.9,9-6.2,9-11.9s-4.1-9.4-9-8.4c-4.8,1-8.7,6.3-8.7,11.8S964.4,282.8,969.3,281.9z"/>
						<path class="st7" d="M943.1,286.6c4.5-0.8,8.2-5.9,8.2-11.3c0-5.4-3.7-9-8.2-8.1c-4.4,0.9-8,6-8,11.3S938.7,287.4,943.1,286.6
							z"/>
					</g>
				</g>
			</g>
		</g>
		<path class="st5" d="M0,352.7v62c218,14.2,453.8,22,700,22s482-7.8,700-22v-62c-207.6,25.1-446.2,39.4-700,39.4
			S207.6,377.8,0,352.7z"/>
		<path class="st2" d="M0,389.7v25c218,14.2,453.8,22,700,22s482-7.8,700-22v-25c-218,14.2-453.8,22-700,22S218,403.9,0,389.7z"/>
		<g>
			<g>
				<rect x="620" y="416.2" class="st5" width="11.7" height="40.5"/>
				<rect x="766.4" y="416.2" class="st5" width="11.7" height="40.5"/>
			</g>
			<g>
				<radialGradient id="SVGID_11_" cx="699.0565" cy="371.6319" r="90.0712" gradientUnits="userSpaceOnUse">
					<stop  offset="0" style="stop-color:#235566"/>
					<stop  offset="1" style="stop-color:#0B3038"/>
				</radialGradient>
				<rect x="591.9" y="316.3" class="st14" width="214.3" height="110.7"/>
				<path class="st15" d="M599.9,418.5v-93.8h198.2v93.8H599.9z M601.6,416.5h194.9v-52H601.6V416.5z M760,362.4h36.5v-35.6H760
					V362.4z M719.9,362.4h38.4v-35.6h-38.4V362.4z M679.8,362.4h38.4v-35.6h-38.4V362.4z M639.8,362.4h38.4v-35.6h-38.4V362.4z
					 M601.6,362.4h36.5v-35.6h-36.5V362.4z"/>
			</g>
		</g>
		
			<radialGradient id="SVGID_12_" cx="733.0033" cy="662.1899" r="627.3466" gradientTransform="matrix(1 0 0 0.7929 0 137.1488)" gradientUnits="userSpaceOnUse">
			<stop  offset="0" style="stop-color:#E58035"/>
			<stop  offset="0.3616" style="stop-color:#E38639"/>
			<stop  offset="0.848" style="stop-color:#DF9745"/>
			<stop  offset="1" style="stop-color:#DD9E4A"/>
		</radialGradient>
		<path class="st16" d="M1400,1200V643.1c-213.6-28.7-450.6-44.7-700-44.7s-486.4,16-700,44.7V1200H1400z"/>
		<linearGradient id="SVGID_13_" gradientUnits="userSpaceOnUse" x1="698.698" y1="1232.9622" x2="701.5425" y2="684.9166">
			<stop  offset="0" style="stop-color:#007C37"/>
			<stop  offset="0.2384" style="stop-color:#1C902E"/>
			<stop  offset="0.7513" style="stop-color:#53B81E"/>
			<stop  offset="1" style="stop-color:#68C717"/>
		</linearGradient>
		<path class="st17" d="M1359.3,745.3C1185,680.6,953.7,641.1,700,641.1c-253.7,0-485,39.5-659.3,104.2L0,764.2V1200h1400V764.2
			L1359.3,745.3z"/>
		<g class="st18">
			<linearGradient id="SVGID_14_" gradientUnits="userSpaceOnUse" x1="100.6094" y1="1323" x2="100.6094" y2="573">
				<stop  offset="0" style="stop-color:#005724"/>
				<stop  offset="0.1044" style="stop-color:#006129"/>
				<stop  offset="0.3403" style="stop-color:#007031"/>
				<stop  offset="0.6122" style="stop-color:#007936"/>
				<stop  offset="1" style="stop-color:#007C37"/>
			</linearGradient>
			<path class="st19" d="M40.7,745.3L0,764.2v36.3l201.2-103.7C143.7,710.8,89.9,727,40.7,745.3z"/>
			<linearGradient id="SVGID_15_" gradientUnits="userSpaceOnUse" x1="182.7063" y1="1323" x2="182.7063" y2="573">
				<stop  offset="0" style="stop-color:#005724"/>
				<stop  offset="0.1044" style="stop-color:#006129"/>
				<stop  offset="0.3403" style="stop-color:#007031"/>
				<stop  offset="0.6122" style="stop-color:#007936"/>
				<stop  offset="1" style="stop-color:#007C37"/>
			</linearGradient>
			<path class="st20" d="M297.1,676.4L0,851v60.2l365.4-246.1C342.2,668.5,319.4,672.3,297.1,676.4z"/>
			<linearGradient id="SVGID_16_" gradientUnits="userSpaceOnUse" x1="241.242" y1="1323" x2="241.242" y2="573">
				<stop  offset="0" style="stop-color:#005724"/>
				<stop  offset="0.1044" style="stop-color:#006129"/>
				<stop  offset="0.3403" style="stop-color:#007031"/>
				<stop  offset="0.6122" style="stop-color:#007936"/>
				<stop  offset="1" style="stop-color:#007C37"/>
			</linearGradient>
			<path class="st21" d="M429.7,656.6L0,1001.1v118.5L482.5,651C464.7,652.7,447.1,654.5,429.7,656.6z"/>
			<linearGradient id="SVGID_17_" gradientUnits="userSpaceOnUse" x1="340.4524" y1="1323" x2="340.4524" y2="573">
				<stop  offset="0" style="stop-color:#005724"/>
				<stop  offset="0.1044" style="stop-color:#006129"/>
				<stop  offset="0.3403" style="stop-color:#007031"/>
				<stop  offset="0.6122" style="stop-color:#007936"/>
				<stop  offset="1" style="stop-color:#007C37"/>
			</linearGradient>
			<path class="st22" d="M536.2,646.7L98.2,1200h165.2l319.3-556C567.1,644.7,551.6,645.6,536.2,646.7z"/>
			<linearGradient id="SVGID_18_" gradientUnits="userSpaceOnUse" x1="560.1722" y1="1323" x2="560.1722" y2="573">
				<stop  offset="0" style="stop-color:#005724"/>
				<stop  offset="0.1044" style="stop-color:#006129"/>
				<stop  offset="0.3403" style="stop-color:#007031"/>
				<stop  offset="0.6122" style="stop-color:#007936"/>
				<stop  offset="1" style="stop-color:#007C37"/>
			</linearGradient>
			<path class="st23" d="M444.3,1200h165.2L676,641.2c-14.8,0.1-29.5,0.4-44.1,0.8L444.3,1200z"/>
			<linearGradient id="SVGID_19_" gradientUnits="userSpaceOnUse" x1="839.8277" y1="1323" x2="839.8277" y2="573">
				<stop  offset="0" style="stop-color:#005724"/>
				<stop  offset="0.1044" style="stop-color:#006129"/>
				<stop  offset="0.3403" style="stop-color:#007031"/>
				<stop  offset="0.6122" style="stop-color:#007936"/>
				<stop  offset="1" style="stop-color:#007C37"/>
			</linearGradient>
			<path class="st24" d="M724,641.2l66.5,558.8h165.2L768,642.1C753.4,641.7,738.7,641.4,724,641.2z"/>
			<linearGradient id="SVGID_20_" gradientUnits="userSpaceOnUse" x1="1059.5474" y1="1323" x2="1059.5474" y2="573">
				<stop  offset="0" style="stop-color:#005724"/>
				<stop  offset="0.1044" style="stop-color:#006129"/>
				<stop  offset="0.3403" style="stop-color:#007031"/>
				<stop  offset="0.6122" style="stop-color:#007936"/>
				<stop  offset="1" style="stop-color:#007C37"/>
			</linearGradient>
			<path class="st25" d="M817.3,644l319.3,556h165.2l-438-553.3C848.4,645.6,832.9,644.7,817.3,644z"/>
			<linearGradient id="SVGID_21_" gradientUnits="userSpaceOnUse" x1="1158.7581" y1="1323" x2="1158.7581" y2="573">
				<stop  offset="0" style="stop-color:#005724"/>
				<stop  offset="0.1044" style="stop-color:#006129"/>
				<stop  offset="0.3403" style="stop-color:#007031"/>
				<stop  offset="0.6122" style="stop-color:#007936"/>
				<stop  offset="1" style="stop-color:#007C37"/>
			</linearGradient>
			<path class="st26" d="M917.5,651l482.5,468.6v-118.5L970.3,656.6C952.9,654.5,935.3,652.7,917.5,651z"/>
			<linearGradient id="SVGID_22_" gradientUnits="userSpaceOnUse" x1="1217.2936" y1="1323" x2="1217.2936" y2="573">
				<stop  offset="0" style="stop-color:#005724"/>
				<stop  offset="0.1044" style="stop-color:#006129"/>
				<stop  offset="0.3403" style="stop-color:#007031"/>
				<stop  offset="0.6122" style="stop-color:#007936"/>
				<stop  offset="1" style="stop-color:#007C37"/>
			</linearGradient>
			<path class="st27" d="M1034.6,665.1L1400,911.2V851l-297.1-174.5C1080.6,672.3,1057.8,668.5,1034.6,665.1z"/>
			<linearGradient id="SVGID_23_" gradientUnits="userSpaceOnUse" x1="1299.3906" y1="1323" x2="1299.3906" y2="573">
				<stop  offset="0" style="stop-color:#005724"/>
				<stop  offset="0.1044" style="stop-color:#006129"/>
				<stop  offset="0.3403" style="stop-color:#007031"/>
				<stop  offset="0.6122" style="stop-color:#007936"/>
				<stop  offset="1" style="stop-color:#007C37"/>
			</linearGradient>
			<path class="st28" d="M1198.8,696.8L1400,800.5v-36.3l-40.7-18.9C1310.1,727,1256.3,710.8,1198.8,696.8z"/>
		</g>
		<g>
			<linearGradient id="SVGID_24_" gradientUnits="userSpaceOnUse" x1="700" y1="1112.8704" x2="700" y2="670.105">
				<stop  offset="0" style="stop-color:#DD9E4A"/>
				<stop  offset="0.2167" style="stop-color:#E3AC61"/>
				<stop  offset="0.492" style="stop-color:#E8BA76"/>
				<stop  offset="0.7575" style="stop-color:#ECC284"/>
				<stop  offset="1" style="stop-color:#EDC588"/>
			</linearGradient>
			<path class="st29" d="M828.8,988l476-172.8C1149.8,751.8,936,712.7,700,712.7c-236,0-449.8,39.1-604.8,102.4l476,172.8
				c-36.2,14-58.8,33.9-58.8,55.9c0,42.5,84,76.9,187.6,76.9s187.6-34.4,187.6-76.9C887.6,1021.9,865,1002,828.8,988z M259.3,827.7
				c50.5,6.6,94.2-9.8,97.9-36.7c99.5-25.4,217-40.1,342.8-40.1c125.9,0,243.3,14.7,342.8,40.1c3.7,27,47.5,43.3,97.9,36.7
				l-391.1,142c-15.8-1.8-32.4-2.7-49.6-2.7s-33.8,1-49.6,2.7L259.3,827.7z"/>
			<linearGradient id="SVGID_25_" gradientUnits="userSpaceOnUse" x1="700" y1="1112.8704" x2="700" y2="670.105">
				<stop  offset="0" style="stop-color:#DD9E4A"/>
				<stop  offset="0.2167" style="stop-color:#E3AC61"/>
				<stop  offset="0.492" style="stop-color:#E8BA76"/>
				<stop  offset="0.7575" style="stop-color:#ECC284"/>
				<stop  offset="1" style="stop-color:#EDC588"/>
			</linearGradient>
			<ellipse class="st30" cx="700" cy="858.1" rx="60.6" ry="24.8"/>
		</g>
		<g>
			<g>
				<path class="st7" d="M663.9,1067.5h-61.2l12.4-76.1h53.7L663.9,1067.5z M609.4,1061.9h49.2l4.2-64.8H620L609.4,1061.9z"/>
			</g>
			<g>
				<path class="st7" d="M797.3,1067.5h-61.2l-4.9-76.1h53.7L797.3,1067.5z M741.4,1061.9h49.2L780,997.1h-42.9L741.4,1061.9z"/>
			</g>
		</g>
		<g>
			<g>
				<path class="st7" d="M663.9,1067.5h-61.2l12.4-76.1h53.7L663.9,1067.5z M609.4,1061.9h49.2l4.2-64.8H620L609.4,1061.9z"/>
			</g>
			<g>
				<path class="st7" d="M797.3,1067.5h-61.2l-4.9-76.1h53.7L797.3,1067.5z M741.4,1061.9h49.2L780,997.1h-42.9L741.4,1061.9z"/>
			</g>
		</g>
		<polygon class="st31" points="700.1,997.1 699.9,997.1 700.1,997.1 		"/>
		<polygon class="st31" points="699.9,997.1 699.9,997.1 700.1,997.1 		"/>
		<g>
			<polygon class="st32" points="647.1,991.4 9.4,759.9 0,764.2 625.8,991.4 			"/>
			<polygon class="st32" points="774.2,991.4 1400,764.2 1390.6,759.9 752.9,991.4 			"/>
		</g>
		<path class="st31" d="M752.9,991.4l34.8-12.6c-26.7-5.9-56.6-9-87.7-9c-31.1,0-61.1,3.1-87.7,9l34.8,12.6h-21.3l-26.3-9.6
			c-11.1,2.9-21.5,6.4-31,10.3c-34.3,14.1-53.2,32.5-53.2,51.8c0,19.3,18.9,37.7,53.2,51.8c35.1,14.4,81.8,22.3,131.6,22.3
			c49.7,0,96.5-7.9,131.6-22.3c34.3-14.1,53.2-32.5,53.2-51.8c0-19.3-18.9-37.7-53.2-51.8c-9.5-3.9-19.9-7.3-31-10.3l-26.3,9.6
			H752.9z"/>
		<path class="st31" d="M1140.7,827.7c-50.5,6.6-94.2-9.8-97.9-36.7c-99.5-25.4-217-40.1-342.8-40.1c-125.9,0-243.3,14.7-342.8,40.1
			c-3.7,27-47.5,43.3-97.9,36.7l440.7,160L1140.7,827.7z"/>
		<path class="st31" d="M575.3,989.4c-2.3,0.9-4.6,1.8-6.9,2.7c-34.3,14.1-53.2,32.5-53.2,51.8c0,19.3,18.9,37.7,53.2,51.8
			c35.1,14.4,81.8,22.3,131.6,22.3s96.5-7.9,131.6-22.3c34.3-14.1,53.2-32.5,53.2-51.8c0-19.3-18.9-37.7-53.2-51.8
			c-2.2-0.9-4.5-1.8-6.9-2.7L700,1034.7L575.3,989.4z"/>
		<path class="st32" d="M833.7,986.9c-0.3-0.1-0.6-0.3-1-0.4l-8.1,2.9c2.3,0.9,4.6,1.8,6.9,2.7c34.3,14.1,53.2,32.5,53.2,51.8
			c0,19.3-18.9,37.7-53.2,51.8c-35.1,14.4-81.8,22.3-131.6,22.3s-96.5-7.9-131.6-22.3c-34.3-14.1-53.2-32.5-53.2-51.8
			c0-19.3,18.9-37.7,53.2-51.8c2.2-0.9,4.5-1.8,6.9-2.7l-8.1-2.9c-0.3,0.1-0.6,0.3-1,0.4c-36.6,15-56.7,35.2-56.7,57
			c0,21.8,20.1,42,56.7,57c35.8,14.7,83.3,22.7,133.7,22.7c50.5,0,98-8.1,133.7-22.7c36.6-15,56.7-35.2,56.7-57
			C890.4,1022.1,870.3,1001.9,833.7,986.9z"/>
		<g>
			<polygon class="st7" points="682.9,1019.1 681.6,1033.8 700,1046.8 718.4,1033.8 717.1,1019.1 			"/>
		</g>
		<g>
			
				<radialGradient id="SVGID_26_" cx="701.4999" cy="502.2673" r="661.3766" gradientTransform="matrix(1 0 0 0.5339 0 234.1051)" gradientUnits="userSpaceOnUse">
				<stop  offset="0" style="stop-color:#235566"/>
				<stop  offset="1" style="stop-color:#2C8EA8"/>
			</radialGradient>
			<path class="st33" d="M1400,471c-225.1-10.8-459.4-16.6-700-16.6S225.1,460.1,0,471v172.2c213.6-28.7,450.6-44.7,700-44.7
				s486.4,16,700,44.7V471z"/>
			<path class="st34" d="M700,522.2c-240.6,0-474.9,22.6-700,33.5v6.7c225.1-10.8,459.4-33.5,700-33.5s474.9,22.6,700,33.5v-6.7
				C1174.9,544.8,940.6,522.2,700,522.2z"/>
			<circle class="st35" cx="625.1" cy="483.5" r="8.6"/>
			<circle class="st7" cx="696" cy="488" r="1.7"/>
			<circle class="st35" cx="710.3" cy="568.3" r="4.7"/>
			<circle class="st36" cx="789.3" cy="492.7" r="4.3"/>
			<circle class="st7" cx="927" cy="477.7" r="5.3"/>
			<circle class="st37" cx="807.7" cy="575.7" r="7.3"/>
			<circle class="st35" cx="443.7" cy="565.7" r="4.7"/>
			<circle class="st7" cx="568" cy="559.3" r="7"/>
			<circle class="st7" cx="507" cy="502" r="2.7"/>
			<circle class="st36" cx="354.7" cy="491.3" r="5.7"/>
			<circle class="st7" cx="318" cy="576" r="3.7"/>
			<circle class="st7" cx="424.7" cy="482.3" r="4"/>
			<circle class="st7" cx="394" cy="585.3" r="3"/>
			<circle class="st37" cx="195" cy="497.7" r="6.7"/>
			<circle class="st7" cx="282.7" cy="491.3" r="2.3"/>
			<circle class="st7" cx="202" cy="586" r="6.3"/>
			<circle class="st37" cx="69" cy="603.7" r="4.7"/>
			<circle class="st36" cx="34" cy="502.7" r="3.7"/>
			<circle class="st7" cx="100.3" cy="519.7" r="4.7"/>
			<circle class="st7" cx="134" cy="577.3" r="2.3"/>
			<circle class="st36" cx="1095.7" cy="503.7" r="6"/>
			<circle class="st7" cx="1296.3" cy="493" r="4.7"/>
			<circle class="st36" cx="1353.7" cy="605.7" r="9.3"/>
			<circle class="st7" cx="1358.3" cy="518.3" r="3.3"/>
			<circle class="st35" cx="1249.7" cy="583" r="3.3"/>
			<circle class="st36" cx="1205" cy="512.3" r="6.7"/>
			<circle class="st37" cx="1109.7" cy="580.3" r="3.3"/>
			<circle class="st36" cx="975" cy="575.7" r="3.3"/>
			<circle class="st7" cx="1008.3" cy="499.7" r="5.3"/>
			<circle class="st7" cx="902" cy="554" r="3"/>
			<circle class="st35" cx="847.8" cy="485.8" r="4.8"/>
			<circle class="st36" cx="633.5" cy="568.5" r="6.5"/>
			<circle class="st36" cx="251.2" cy="585.8" r="4.8"/>
			<circle class="st38" cx="1048" cy="584" r="5.5"/>
			<circle class="st35" cx="1255.5" cy="491" r="6"/>
			<circle class="st38" cx="1300.8" cy="601.8" r="6.2"/>
			<circle class="st38" cx="25" cy="601" r="4"/>
			<circle class="st38" cx="145" cy="489" r="6"/>
			<circle class="st38" cx="512.5" cy="575.5" r="6.5"/>
			<circle class="st38" cx="564.7" cy="467.7" r="3.7"/>
			<circle class="st38" cx="874.3" cy="582" r="3.7"/>
		</g>
	</g>
</g>
</svg>
